<svg width="32" height="32" viewBox="0 0 32 32" fill="none" xmlns="http://www.w3.org/2000/svg">
  <rect x="2" y="8" width="24" height="12" rx="3" ry="3" fill="white" fill-opacity="0.08" />
  <path
    d="M6 19C6 16.7909 7.79086 15 10 15H18C20.2091 15 22 16.7909 22 19"
    stroke="white"
    stroke-width="1.6"
    stroke-linecap="round"
  />
  <path
    d="M4 13L7.5 9.5C8 9 8.7 8.7 9.4 8.7H16.5C17.4 8.7 18.3 9.1 18.9 9.8L22 13"
    stroke="white"
    stroke-width="1.6"
    stroke-linecap="round"
    stroke-linejoin="round"
  />
  <circle cx="9.5" cy="20.5" r="2.25" fill="white" />
  <circle cx="18.5" cy="20.5" r="2.25" fill="white" />
  <path
    d="M26 19V14.5C26 13.1193 24.8807 12 23.5 12H22"
    stroke="white"
    stroke-width="1.6"
    stroke-linecap="round"
  />
  <path
    d="M4 19H3.5C2.67157 19 2 18.3284 2 17.5V15.5C2 14.6716 2.67157 14 3.5 14H5"
    stroke="white"
    stroke-width="1.6"
    stroke-linecap="round"
  />
</svg>

